<?xml version="1.0" encoding="utf-8"?>
<!-- Generator: Adobe Illustrator 22.0.0, SVG Export Plug-In . SVG Version: 6.00 Build 0)  -->
<svg version="1.1" xmlns="http://www.w3.org/2000/svg" xmlns:xlink="http://www.w3.org/1999/xlink" x="0px" y="0px"
	 viewBox="0 0 1920.3 722.9" style="enable-background:new 0 0 1920.3 722.9;" xml:space="preserve">
<style type="text/css">
	.st0{fill:#F4F4F4;}
	.st1{fill:#FCFCFC;}
	.st2{fill:none;stroke:#EAEAEA;stroke-miterlimit:10;}
	.st3{clip-path:url(#SVGID_2_);}
	.st4{opacity:0.51;fill:url(#SVGID_5_);}
	.st5{opacity:0.65;}
	.st6{fill:#F4911E;}
	.st7{fill:#727272;}
	.st8{opacity:0.45;fill:#C16F1E;}
	.st9{opacity:0.22;fill:#BF441F;}
	.st10{fill:none;stroke:#727272;stroke-miterlimit:10;}
	.st11{opacity:0.5;fill:#FCFCFC;}
	.st12{opacity:0.5;}
	.st13{opacity:0.19;}
	.st14{fill:url(#SVGID_8_);}
	.st15{fill:none;stroke:#FCFCFC;stroke-width:4;stroke-linecap:round;stroke-linejoin:round;stroke-miterlimit:10;}
	.st16{fill:#EAEAEA;}
	.st17{fill:#F9F9F9;}
	.st18{clip-path:url(#SVGID_10_);}
	.st19{opacity:0.51;fill:url(#SVGID_13_);}
	.st20{clip-path:url(#SVGID_15_);}
	.st21{opacity:0.51;fill:url(#SVGID_16_);}
	.st22{opacity:0.25;}
	.st23{fill:none;stroke:#727272;stroke-width:3;stroke-miterlimit:10;}
	.st24{clip-path:url(#SVGID_20_);}
	.st25{opacity:0.51;fill:url(#SVGID_21_);}
</style>
<g id="Capa_2">
</g>
<g id="Capa_1">
	<g>
		<g>
			<g>
				<g>
					<g>
						<path class="st6" d="M740.8,432.2c1.3,1.3,2,3,2,5c0,2.1-0.7,3.9-2,5.2c-1.3,1.3-3.2,2-5.5,2h-94.5l-5.6,71.5h88.3
							c2.1,0,3.9,0.7,5.2,2c1.3,1.3,2,3.1,2,5.2s-0.7,3.9-2,5.2c-1.3,1.3-3.2,2-5.5,2h-89.1l-5.9,74.4h93.7c2.1,0,3.9,0.7,5.2,2
							c1.3,1.3,2,3,2,5c0,2.1-0.7,3.9-2,5.2c-1.3,1.3-3.2,2-5.5,2H619.4c-2.9,0-5-0.8-6.3-2.3c-1.3-1.5-1.9-3.7-1.7-6.6l13.4-171.9
							c0.4-5.4,3.3-8,8.8-8h102C737.7,430.2,739.5,430.8,740.8,432.2z"/>
						<path class="st6" d="M768,616.6c-1.4-1.5-2-3.7-1.6-6.6L780,436.6c0.2-2.3,1.1-4.2,2.7-5.6c1.6-1.4,3.6-2.1,5.9-2.1
							c2.5,0,4.5,0.8,5.9,2.3c1.4,1.5,2,3.6,1.9,6.3l-13.1,167.1h91.3c2.1,0,3.9,0.7,5.2,2c1.3,1.3,2,3.1,2,5.2c0,2.1-0.7,3.9-2,5.2
							c-1.3,1.3-3.2,2-5.5,2h-99.9C771.5,618.9,769.4,618.1,768,616.6z"/>
						<path class="st6" d="M969.8,599.1c-2.9-2.3-4.3-5.1-4.3-8.3c0-2.1,0.6-3.9,1.9-5.4c1.2-1.4,2.8-2.1,4.6-2.1
							c1.8,0,3.2,0.5,4.3,1.6c8.9,7.5,18.2,13,28,16.5c9.7,3.5,20.7,5.2,33.1,5.2c16.6,0,29.3-3.2,38-9.6
							c8.7-6.4,13.1-15.3,13.1-26.8c0-6.8-2.1-12.4-6.3-16.9c-4.2-4.5-9.5-7.9-15.9-10.4c-6.4-2.5-15-5.3-25.7-8.3
							c-13.4-3.7-24.2-7.4-32.4-10.8c-8.2-3.5-15.2-8.7-20.9-15.7c-5.7-7-8.6-16.2-8.6-27.6c0-10.5,2.8-19.8,8.3-27.7
							c5.5-7.9,13.4-14.1,23.7-18.3c10.3-4.3,22.3-6.4,36-6.4c12.9,0,24.9,2.1,36.1,6.2c11.2,4.1,20.8,9.9,28.6,17.4
							c1.8,1.8,2.7,3.9,2.7,6.4c0,2-0.7,3.7-2,5.2c-1.3,1.5-3,2.3-5,2.3c-2.3,0-4.5-0.9-6.4-2.7c-7.1-6.4-15.3-11.4-24.5-15
							c-9.2-3.6-19.1-5.4-29.6-5.4c-16.6,0-29.3,3.3-38,9.9c-8.7,6.6-13.1,15.8-13.1,27.6c0,7.7,2.3,14,6.8,19
							c4.6,5,10.2,8.8,17,11.5c6.8,2.7,15.8,5.6,27,8.8c13,3.7,23.4,7.3,31.2,10.6c7.8,3.3,14.3,8.1,19.7,14.5c5.4,6.3,8,14.7,8,25
							c0,15.9-6.1,28.5-18.3,37.7c-12.2,9.3-28.8,13.9-49.7,13.9C1008.9,621,986.4,613.7,969.8,599.1z"/>
						<path class="st6" d="M1297.5,612.5c0,2.3-0.8,4.2-2.4,5.8c-1.6,1.5-3.5,2.3-5.6,2.3c-1.6,0-3.1-0.5-4.4-1.6
							c-1.3-1.1-2.4-2.6-3.1-4.6l-16.3-45.8h-102.5l-23.8,46.8c-1.4,3.2-3.8,4.8-7.2,4.8c-2.1,0-4-0.7-5.5-2.1
							c-1.5-1.4-2.3-3.2-2.3-5.4c0-1.4,0.4-2.9,1.1-4.3l89.4-173.2c2.1-4.3,5.4-6.4,9.9-6.4c2.1,0,4.1,0.6,5.9,1.9
							c1.8,1.3,3.1,3.1,4,5.6l62.4,172.9C1297.3,610,1297.5,611,1297.5,612.5z M1170.4,554.1h90.2l-37.2-103.9L1170.4,554.1z"/>
						<path class="st6" d="M1519.7,430.3c1.2,1.3,1.7,3,1.3,5L1507.1,613c-0.2,2.3-1,4.1-2.5,5.4c-1.5,1.2-3.3,1.9-5.5,1.9
							c-2.1,0-4-0.8-5.5-2.3c-1.5-1.5-2.2-3.5-2-6l12-148.3L1430,585.2c-0.9,1.4-2.1,2.6-3.5,3.5c-1.4,0.9-3,1.3-4.8,1.3
							c-4.1,0-7-1.9-8.6-5.6l-54.3-120.5L1347,613c-0.2,2.3-1,4.1-2.5,5.4c-1.5,1.2-3.3,1.9-5.5,1.9c-2.1,0-4-0.8-5.5-2.3
							c-1.5-1.5-2.2-3.5-2-6l13.7-174.8c0.2-2.5,1-4.5,2.5-6c1.5-1.5,3.5-2.3,6-2.3c3.4,0,6.1,2.1,8,6.2l61,137.9l83-139.2
							c2-3.6,4.8-5.4,8.6-5.4C1516.7,428.3,1518.5,428.9,1519.7,430.3z"/>
						<path class="st6" d="M1715.1,612.5c0,2.3-0.8,4.2-2.4,5.8c-1.6,1.5-3.5,2.3-5.6,2.3c-1.6,0-3.1-0.5-4.4-1.6
							c-1.3-1.1-2.4-2.6-3.1-4.6l-16.3-45.8h-102.5l-23.8,46.8c-1.4,3.2-3.8,4.8-7.2,4.8c-2.1,0-4-0.7-5.5-2.1
							c-1.5-1.4-2.3-3.2-2.3-5.4c0-1.4,0.4-2.9,1.1-4.3l89.4-173.2c2.1-4.3,5.4-6.4,9.9-6.4c2.1,0,4.1,0.6,5.9,1.9
							c1.8,1.3,3.1,3.1,4,5.6l62.4,172.9C1715,610,1715.1,611,1715.1,612.5z M1588,554.1h90.2L1641,450.2L1588,554.1z M1645.5,415.4
							c-1.2,0-2.3-0.4-3.1-1.2c-0.8-0.8-1.2-1.8-1.2-3.1c0-1.1,0.4-2.3,1.3-3.7l22-30.5c2.7-3.4,5.4-5.1,8.3-5.1c2,0,3.7,0.7,5.1,2
							c1.4,1.3,2.1,3,2.1,5c0,2.5-1.2,4.9-3.5,7.2l-26,27C1649,414.6,1647.3,415.4,1645.5,415.4z"/>
						<path class="st6" d="M1908.8,431.2c1.5,1.6,2.2,3.6,2,5.9l-13.9,175.1c-0.4,5.4-2.9,8-7.5,8c-3,0-5.7-1.5-8-4.6l-104.7-158.2
							l-12.6,155.3c-0.2,2.3-1,4.1-2.4,5.5c-1.4,1.3-3.2,2-5.4,2c-2.1,0-4-0.8-5.5-2.4c-1.5-1.6-2.2-3.7-2-6.2l13.7-174.6
							c0.2-2.7,1-4.7,2.5-6.2c1.5-1.4,3.4-2.1,5.8-2.1c3.2,0,5.7,1.5,7.5,4.6L1883,590.5l12.3-154.2c0.2-2.3,1-4.1,2.4-5.5
							c1.4-1.3,3.3-2,5.6-2C1905.5,428.8,1907.3,429.6,1908.8,431.2z"/>
					</g>
				</g>
				<g>
					<g>
						<g>
							<g>
								<path class="st6" d="M532.9,598.2c12.7,24.4,22.2,53.3-6.2,70.5c-17.5,10.6-38,9.6-57.4,6.6c-32.2-5.1-64.6-7.3-96.8-12.2
									c-19.8-3-41.2-10.2-52.5-28.1c-12.1-19.2-2.2-40.2,5.5-58.9c12.6-30.4,21.6-61.9,26.5-94.5c8.3-54.6,6.7-112.7-3.1-167.1
									c-4.3-23.8-11.7-47.7-26.4-67.2c-18.5-24.5-54.1-33.8-56.6-68.5c-0.3-4-4.2-8.3-8.6-6.6c-45.1,17.3-98.3,46.4-147.1,31.5
									c-40.4-12.3-59.2-57.1-76.2-92.1C25.7,94.1,1.1,57.8,21.5,40.5c14.6-12.4,43-11.9,60.9-10.9c19.9,1.2,42.3,4.5,60.5,13
									c16.5,7.8,28.7,21.3,40.6,34.6c14.8,16.5,37.7,45.9,63.3,38.7c27.2-7.6,51.6-38.8,70.6-57.8c13.8-13.9,28.2-27.9,46.1-36.3
									c25.8-12.2,43.6-7.9,68,3.4c15.5,7.2,26.4,0.7,42.6-1.5c30.8-4.1,49.8,21.9,69.9,41.3c25.7,24.9,52.7,61.7,88.7,71.4
									c8.5,2.3,12.1-10.8,3.6-13.1c-24.2-6.5-41.3-27.7-58.6-44.5c-17.1-16.6-33.8-33.6-51.2-49.8c-12.4-11.6-23.8-19.8-41.6-20
									c-9-0.1-16.4,2.4-25.2,3.7c-17.5,2.5-22.8-2-36.3-7.7c-32.2-13.5-67.8,1.6-93,22.4c-17,14-31.3,30.8-47.3,45.8
									c-8.5,7.9-17.4,15.4-26.9,22c-15,10.4-30.2,5-42.8-6.4c-26.2-23.7-43.1-52.4-78.4-63.7C100.6,14.1,55.9,9.7,22.4,25
									c-35.1,16-21.5,46.4-8.8,74.5C29,133.7,46,176.3,75.9,200.7c54.9,44.8,128.6,6.3,185.2-15.4c-2.9-2.2-5.7-4.4-8.6-6.6
									c1.6,22.5,13.4,39.7,31.7,52.4c26.4,18.3,40.9,40.6,48.6,72c14.5,58.9,14.9,127.3,4.2,186.7c-6,33.2-17.7,63.1-29.5,94.4
									c-8.4,22.3-10.6,44.8,5.5,64.1c15.5,18.7,39.2,26.1,62.4,28.9c16.8,2.1,33.7,2,50.4,4.1c16.7,2.2,33,6.5,49.7,8.5
									c26.5,3.1,56-1,73.9-23c19-23.4,7.5-51.9-4.8-75.6C540.6,583.5,528.9,590.4,532.9,598.2L532.9,598.2z"/>
							</g>
						</g>
						<g>
							<path class="st6" d="M302.1,340.9C302.1,340.9,302.1,340.9,302.1,340.9c-26.9,0-46.5-12.5-58.4-27.8
								c-18.4-23.8-10.7-58.2-10.4-59.6c0.5-1.8,1.7-4.5,3.3-5.4c1.7-0.9,3.6-1.6,5.4-1c33,11,54.4,26.4,63.7,46.2
								c8.8,18.9,2.9,38.5,2.6,39.2C307.4,335.1,304.9,340.9,302.1,340.9z M245.5,262.2c-0.9,9.4-0.6,25.9,9.1,38.4
								c8.5,10.9,22.6,16.9,42.2,18c0.6-4.5,0.6-11.8-3.5-20.2C286.4,284,270,271.6,245.5,262.2z"/>
						</g>
						<g>
							<g>
								<path class="st6" d="M618.8,268.8c3.8,11.9,4.9,23.8,0.7,35.8c-3.6,10.2-19.1,32.6-32.5,31c-25.4-2.9,4.1-46.3,11.6-53.2
									c37.4-34.9,78-25.1,124.2-22.1c67.3,4.3,133.3-37.1,168.5-93.6c5.2-8.4,15.8-25.3,12-35.9c-4-10.9-20.7-18.1-30.3-22.4
									c-13.3-6-27-7.2-40.7-11.3c-17.6-5.3-32.6-13.9-51.5-14.7c-34.2-1.4-61.6,15.9-86,38c-22.4,20.3-42.8,44.9-40.6,77
									c0.6,8.7,14.2,8.8,13.6,0c-2.5-35.8,29.8-65.1,56.8-84c32.2-22.5,61.9-18.4,96.5-5.8c13,4.7,26.9,5.8,39.9,10.6
									c24.6,9.1,32.4,20.6,16.4,44.5c-18.1,27-45.5,51.3-74.1,66.7c-30.9,16.6-62,19.3-96.5,15.8c-28.1-2.8-57.4-7-84.3,4.2
									c-35.5,14.7-73.2,58.7-52.9,98.7c1,1.9,3.7,3.6,5.9,3.4c43.2-5.2,69.8-44.1,56.3-86.3C629.3,256.9,616.1,260.5,618.8,268.8
									L618.8,268.8z"/>
							</g>
						</g>
						<g>
							<g>
								<path class="st6" d="M331.2,621.3c10.3,15,26.6,23.9,44.8,24.1c3.3,0,7.3-3.2,6.8-6.8c-3.1-23.7-42.5-66.3,13.2-63.4
									c20.3,1,39.6,5.5,60.1,2.2c9-1.4,17.7-5.2,27-4.2c24,2.6,21.9,26,10.8,40.4c-7.9,10.3-20,18.3-26.9,29.2
									c-1.9,3-0.8,7.7,2.4,9.3c16.8,8.3,45.8,5.5,58.4-8.7c5.8-6.5-3.8-16.2-9.6-9.6c-8.1,9-30.5,12.2-41.9,6.6
									c0.8,3.1,1.6,6.2,2.4,9.3c11.4-18.2,35.8-28.9,37.7-52.8c2.2-27.4-21.5-40.1-45.9-36.6c-19.2,2.7-36.2,5.5-55.7,3.8
									c-13.6-1.2-28.8-7.1-42.2-1.9c-12.1,4.7-19.7,16-20.9,28.8c-1.8,19.2,14.9,29.8,17.3,47.6c2.3-2.3,4.5-4.5,6.8-6.8
									c-13.4-0.1-25.5-6.3-33.1-17.3C338.1,607.2,326.3,614,331.2,621.3L331.2,621.3z"/>
							</g>
						</g>
						<g>
							<path class="st6" d="M435.7,722.9c-54.9,0-78.4-22.7-79.7-23.9c-2.7-2.7-2.7-7,0-9.6c2.6-2.7,6.9-2.7,9.6,0
								c0.5,0.4,35.8,33.3,122.7,13.6c3.7-0.8,7.3,1.5,8.1,5.1c0.8,3.7-1.5,7.3-5.1,8.1C470,721,451.6,722.9,435.7,722.9z"/>
						</g>
					</g>
				</g>
				<g>
					<path class="st6" d="M1913.5,691.7H615.7c-3.8,0-6.8-2.7-6.8-6.5s3-6.5,6.8-6.5h1297.7c3.8,0,6.8,2.7,6.8,6.5
						S1917.2,691.7,1913.5,691.7z"/>
				</g>
			</g>
		</g>
	</g>
</g>
</svg>
